<svg width="195" height="195" viewBox="0 0 195 195" fill="none" xmlns="http://www.w3.org/2000/svg">
<g filter="url(#filter0_d_511_360)">
<circle cx="96.5" cy="90.5" r="87.5" fill="white"/>
</g>
<path d="M98.4186 18.6545C92.7456 27.0161 86.989 35.2905 81.2324 43.565L63.7961 68.3014L46.3598 92.9504L37.5998 105.319L28.7565 117.6L27.5885 116.467L44.6078 100.964C50.2809 95.8248 55.9539 90.6859 61.7105 85.5471L78.8132 70.2175C84.5695 65.1658 90.2426 60.0267 95.9992 54.975C90.4096 60.2881 84.8199 65.5141 79.2301 70.7401L62.3778 86.418C56.7883 91.644 51.1985 96.87 45.5255 102.096L28.6731 117.687L23 122.913L27.5051 116.554L36.265 104.273L45.1083 91.9923L62.7117 67.4302L80.4816 42.9553C86.405 34.855 92.4117 26.7548 98.4186 18.6545Z" fill="#020202"/>
<path d="M93.5781 18.6545C99.585 26.7548 105.592 34.855 111.515 42.9553L129.285 67.4302L146.888 91.9923L155.732 104.273L164.492 116.642L168.997 123L163.324 117.774L146.388 102.183C140.715 97.0442 135.125 91.7311 129.535 86.5051L112.683 70.8272C107.094 65.6012 101.504 60.2881 95.9143 55.0621C101.671 60.1138 107.427 65.2527 113.1 70.3046L130.203 85.634C135.876 90.773 141.633 95.8248 147.306 101.051L164.325 116.554L163.157 117.687L154.313 105.406L145.637 92.9504L128.117 68.3014L110.764 43.565C105.091 35.2035 99.3347 26.929 93.5781 18.6545Z" fill="#020202"/>
<path d="M96.0052 60.2013C95.9219 56.6302 95.9219 53.0592 95.9219 49.401V38.6007L96.0052 27.8003C96.0887 24.2293 96.0887 20.6582 96.2555 17C96.3388 20.5711 96.3388 24.1422 96.3388 27.8003V38.6007L96.2555 49.401C96.172 53.0592 96.0887 56.6302 96.0052 60.2013Z" fill="#020202"/>
<g opacity="0.4">
<path opacity="0.4" d="M96.1206 22L96.1172 55.349L168.002 122L96.1206 22Z" fill="#6F6F6F"/>
<path opacity="0.4" d="M96.1165 22V55.349L25.5 120.25L96.1165 22Z" fill="#E0E0E0"/>
</g>
<defs>
<filter id="filter0_d_511_360" x="0" y="0" width="195" height="195" filterUnits="userSpaceOnUse" color-interpolation-filters="sRGB">
<feFlood flood-opacity="0" result="BackgroundImageFix"/>
<feColorMatrix in="SourceAlpha" type="matrix" values="0 0 0 0 0 0 0 0 0 0 0 0 0 0 0 0 0 0 127 0" result="hardAlpha"/>
<feOffset dx="1" dy="7"/>
<feGaussianBlur stdDeviation="5"/>
<feComposite in2="hardAlpha" operator="out"/>
<feColorMatrix type="matrix" values="0 0 0 0 0 0 0 0 0 0 0 0 0 0 0 0 0 0 0.25 0"/>
<feBlend mode="normal" in2="BackgroundImageFix" result="effect1_dropShadow_511_360"/>
<feBlend mode="normal" in="SourceGraphic" in2="effect1_dropShadow_511_360" result="shape"/>
</filter>
</defs>
</svg>
